<?xml version="1.0" standalone="no"?>
<!DOCTYPE svg PUBLIC "-//W3C//DTD SVG 20010904//EN" "http://www.w3.org/TR/2001/REC-SVG-20010904/DTD/svg10.dtd">
<svg version="1.0" xmlns="http://www.w3.org/2000/svg"
    width="151.000000pt" height="151.000000pt" viewBox="0 0 151.000000 151.000000"
    preserveAspectRatio="xMidYMid meet">

    <g transform="translate(0.000000,151.000000) scale(0.100000,-0.100000)"
        fill="#000000" stroke="none">
        <path
            d="M654 1499 c-85 -5 -114 -12 -180 -40 -201 -87 -334 -221 -423 -424
-35 -80 -36 -81 -39 -252 -3 -139 -1 -182 13 -229 78 -267 295 -473 563 -532
l42 -10 0 264 0 264 -95 0 -95 0 0 110 0 110 93 0 94 0 7 125 c4 78 13 141 23
168 47 121 159 177 325 162 44 -3 87 -9 94 -12 10 -4 14 -28 14 -94 l0 -89
-60 0 c-126 0 -160 -37 -160 -175 l0 -85 104 0 104 0 -5 -42 c-3 -24 -11 -72
-17 -108 l-11 -65 -88 -3 -87 -3 0 -263 0 -263 43 8 c91 17 224 78 293 134
176 144 269 307 295 517 37 303 -118 599 -391 750 -126 69 -246 90 -456 77z" />
    </g>
</svg>