<?xml version="1.0" standalone="no"?>
<!DOCTYPE svg PUBLIC "-//W3C//DTD SVG 20010904//EN"
 "http://www.w3.org/TR/2001/REC-SVG-20010904/DTD/svg10.dtd">
<svg version="1.0" xmlns="http://www.w3.org/2000/svg"
 width="151.000000pt" height="151.000000pt" viewBox="0 0 151.000000 151.000000"
 preserveAspectRatio="xMidYMid meet">

<g transform="translate(0.000000,151.000000) scale(0.100000,-0.100000)"
fill="#000000" stroke="none">
<path d="M654 1499 c-85 -5 -114 -12 -180 -40 -201 -87 -334 -221 -423 -424
-35 -79 -36 -82 -39 -242 -4 -177 3 -232 45 -327 57 -130 141 -236 248 -315
303 -222 713 -191 979 75 166 166 246 396 217 619 -34 254 -171 456 -391 577
-126 69 -246 90 -456 77z m418 -302 c70 -34 113 -84 133 -153 18 -64 22 -495
4 -559 -20 -73 -64 -129 -125 -160 -51 -26 -70 -29 -193 -35 -177 -9 -363 -2
-426 16 -68 19 -118 62 -152 132 l-28 57 0 265 c0 249 1 268 21 311 37 78 97
126 189 150 17 4 140 7 275 6 l245 -2 57 -28z"/>
<path d="M558 1141 c-86 -10 -133 -33 -161 -81 -27 -45 -40 -206 -32 -390 7
-183 20 -223 86 -267 l43 -28 245 0 c135 0 258 3 273 7 35 10 85 53 106 92 15
27 17 64 17 287 l0 255 -28 43 c-46 70 -83 80 -293 85 -99 3 -214 1 -256 -3z
m482 -93 c11 -12 20 -30 20 -40 0 -21 -34 -58 -53 -58 -27 0 -57 31 -57 60 0
18 8 34 22 44 30 21 43 20 68 -6z m-205 -62 c132 -56 193 -205 135 -329 -27
-58 -59 -90 -117 -117 -156 -73 -343 45 -343 217 0 54 35 137 71 173 64 61
180 87 254 56z"/>
<path d="M710 908 c-79 -22 -131 -113 -109 -191 14 -51 71 -104 120 -112 54
-9 95 2 134 36 67 59 72 159 10 222 -29 29 -92 60 -115 56 -3 0 -21 -5 -40
-11z"/>
</g>
</svg>
