<?xml version="1.0" standalone="no"?>
<!DOCTYPE svg PUBLIC "-//W3C//DTD SVG 20010904//EN"
 "http://www.w3.org/TR/2001/REC-SVG-20010904/DTD/svg10.dtd">
<svg version="1.0" xmlns="http://www.w3.org/2000/svg"
 width="151.000000pt" height="151.000000pt" viewBox="0 0 151.000000 151.000000"
 preserveAspectRatio="xMidYMid meet">

<g transform="translate(0.000000,151.000000) scale(0.100000,-0.100000)"
fill="#000000" stroke="none">
<path d="M654 1499 c-85 -5 -114 -12 -180 -40 -201 -87 -334 -221 -423 -424
-35 -80 -36 -81 -39 -252 -3 -139 -1 -182 13 -229 58 -200 195 -368 381 -467
29 -15 56 -27 60 -27 5 0 9 48 10 108 0 93 6 131 47 294 37 148 45 193 37 213
-16 42 -11 136 9 181 37 82 120 110 178 60 25 -22 28 -30 27 -83 -1 -34 -14
-99 -33 -159 -35 -115 -38 -140 -15 -172 35 -50 104 -65 172 -37 101 43 162
164 162 324 0 130 -58 228 -166 282 -41 20 -64 24 -144 24 -84 0 -101 -3 -153
-29 -66 -32 -96 -57 -132 -110 -64 -94 -72 -216 -21 -320 28 -56 28 -60 15
-104 -8 -25 -20 -47 -26 -49 -21 -7 -92 68 -123 131 -94 191 -6 451 187 553
153 82 360 85 511 8 63 -32 147 -121 183 -192 30 -61 34 -79 37 -169 3 -74 0
-117 -12 -160 -54 -188 -181 -309 -340 -321 -77 -6 -141 11 -177 47 l-28 28
-10 -32 c-5 -17 -19 -67 -31 -111 -12 -44 -39 -113 -61 -153 -21 -41 -39 -75
-39 -76 0 -5 106 -24 170 -31 63 -8 202 9 275 32 75 23 184 80 234 121 174
142 262 297 291 511 41 299 -116 602 -390 753 -126 69 -246 90 -456 77z"/>
</g>
</svg>
