<?xml version="1.0" standalone="no"?>
<!DOCTYPE svg PUBLIC "-//W3C//DTD SVG 20010904//EN"
 "http://www.w3.org/TR/2001/REC-SVG-20010904/DTD/svg10.dtd">
<svg version="1.0" xmlns="http://www.w3.org/2000/svg"
 width="151.000000pt" height="151.000000pt" viewBox="0 0 151.000000 151.000000"
 preserveAspectRatio="xMidYMid meet">

<g transform="translate(0.000000,151.000000) scale(0.100000,-0.100000)"
fill="#000000" stroke="none">
<path d="M654 1499 c-85 -5 -114 -12 -180 -40 -317 -138 -495 -425 -470 -760
8 -111 27 -181 71 -270 44 -89 66 -121 129 -188 297 -311 777 -318 1080 -15
89 89 149 186 192 314 28 80 27 349 0 435 -92 291 -349 506 -626 524 -52 3
-140 3 -196 0z m400 -455 l38 -26 54 20 c30 11 54 17 54 13 0 -3 -14 -23 -31
-44 -29 -35 -29 -37 -9 -37 12 0 30 5 41 10 30 17 22 -1 -21 -45 -36 -37 -41
-47 -50 -116 -24 -193 -140 -353 -305 -422 -140 -58 -312 -52 -440 16 l-40 22
70 6 c47 3 90 15 130 34 l59 28 -44 19 c-52 22 -86 51 -106 91 l-15 27 38 0
38 0 -35 19 c-47 25 -89 80 -97 124 l-6 36 34 -9 c19 -6 35 -10 37 -10 2 0
-12 18 -29 40 -36 45 -49 122 -30 174 l11 28 54 -50 c65 -62 154 -108 247
-127 39 -8 71 -15 73 -15 1 0 0 15 -2 34 -6 51 29 119 79 155 36 27 51 31 103
31 50 0 69 -5 100 -26z"/>
</g>
</svg>
