<?xml version="1.0" standalone="no"?>
<!DOCTYPE svg PUBLIC "-//W3C//DTD SVG 20010904//EN"
 "http://www.w3.org/TR/2001/REC-SVG-20010904/DTD/svg10.dtd">
<svg version="1.0" xmlns="http://www.w3.org/2000/svg"
 width="151.000000pt" height="151.000000pt" viewBox="0 0 151.000000 151.000000"
 preserveAspectRatio="xMidYMid meet">

<g transform="translate(0.000000,151.000000) scale(0.100000,-0.100000)"
fill="#000000" stroke="none">
<path d="M654 1499 c-85 -5 -114 -12 -180 -40 -198 -86 -335 -222 -420 -417
-41 -94 -59 -215 -50 -342 7 -110 25 -177 72 -273 43 -87 65 -120 128 -186
297 -311 777 -318 1080 -15 89 89 149 186 192 314 28 80 27 349 0 435 -92 291
-349 506 -626 524 -52 3 -140 3 -196 0z m345 -419 c208 -16 216 -29 216 -330
0 -175 -2 -199 -20 -235 -36 -72 -59 -77 -359 -83 -302 -5 -450 5 -489 34 -45
33 -59 85 -64 239 -6 149 7 274 33 312 8 13 25 30 37 38 46 30 406 44 646 25z"/>
<path d="M660 759 l0 -141 53 31 c28 17 82 48 119 68 38 20 65 40 60 44 -4 4
-58 37 -119 73 l-113 65 0 -140z"/>
</g>
</svg>
